<?xml version="1.0" encoding="UTF-8"?>
<svg xmlns="http://www.w3.org/2000/svg" xmlns:xlink="http://www.w3.org/1999/xlink" width="50px" height="50px" viewBox="0 0 50 50" version="1.1">
<defs>
<clipPath id="clip1">
  <path d="M 19.464844 8.039062 L 28.800781 8.039062 L 28.800781 16.800781 L 19.464844 16.800781 Z M 19.464844 8.039062 "/>
</clipPath>
<clipPath id="clip2">
  <path d="M 26 11.199219 L 34.265625 11.199219 L 34.265625 19.332031 L 26 19.332031 Z M 26 11.199219 "/>
</clipPath>
<clipPath id="clip3">
  <path d="M 26 19.734375 L 34.265625 19.734375 L 34.265625 27.867188 L 26 27.867188 Z M 26 19.734375 "/>
</clipPath>
<clipPath id="clip4">
  <path d="M 19.464844 22.265625 L 28.800781 22.265625 L 28.800781 31.039062 L 19.464844 31.039062 Z M 19.464844 22.265625 "/>
</clipPath>
<clipPath id="clip5">
  <path d="M 13.964844 19.734375 L 22.265625 19.734375 L 22.265625 27.867188 L 13.964844 27.867188 Z M 13.964844 19.734375 "/>
</clipPath>
<clipPath id="clip6">
  <path d="M 13.964844 11.199219 L 22.265625 11.199219 L 22.265625 19.332031 L 13.964844 19.332031 Z M 13.964844 11.199219 "/>
</clipPath>
</defs>
<g id="surface1">
<g clip-path="url(#clip1)" clip-rule="nonzero">
<path style=" stroke:none;fill-rule:evenodd;fill:rgb(1.176471%,48.627451%,74.117647%);fill-opacity:1;" d="M 19.523438 11.058594 C 21.9375 12.214844 23.171875 14.125 23.152344 16.792969 C 23.386719 15.789062 23.679688 14.808594 24.109375 13.925781 C 24.550781 14.808594 24.84375 15.789062 25.078125 16.792969 C 25.058594 14.125 26.292969 12.214844 28.707031 11.058594 C 27.34375 10.878906 26.039062 10.777344 24.730469 10.757812 C 25.210938 10.523438 25.539062 10.035156 25.539062 9.46875 C 25.539062 8.679688 24.902344 8.039062 24.109375 8.039062 C 23.332031 8.039062 22.691406 8.679688 22.691406 9.46875 C 22.691406 10.035156 23.019531 10.523438 23.488281 10.757812 C 22.191406 10.777344 20.886719 10.878906 19.523438 11.058594 Z M 19.523438 11.058594 "/>
</g>
<g clip-path="url(#clip2)" clip-rule="nonzero">
<path style=" stroke:none;fill-rule:evenodd;fill:rgb(0.784314%,61.960784%,15.294118%);fill-opacity:1;" d="M 29.160156 11.320312 C 29.367188 13.992188 28.332031 16.003906 26.011719 17.332031 C 27.007812 17.027344 27.992188 16.792969 28.972656 16.738281 C 28.4375 17.554688 27.730469 18.289062 26.96875 19.003906 C 29.28125 17.648438 31.539062 17.761719 33.757812 19.277344 C 33.230469 18.007812 32.65625 16.824219 32.035156 15.683594 C 32.46875 15.984375 33.0625 16.023438 33.550781 15.742188 C 34.238281 15.347656 34.464844 14.472656 34.078125 13.785156 C 33.683594 13.109375 32.808594 12.875 32.121094 13.269531 C 31.632812 13.550781 31.371094 14.078125 31.417969 14.613281 C 30.738281 13.492188 29.996094 12.414062 29.160156 11.320312 Z M 29.160156 11.320312 "/>
</g>
<g clip-path="url(#clip3)" clip-rule="nonzero">
<path style=" stroke:none;fill-rule:evenodd;fill:rgb(98.823529%,67.843137%,7.843137%);fill-opacity:1;" d="M 33.757812 19.804688 C 31.539062 21.316406 29.28125 21.429688 26.96875 20.074219 C 27.730469 20.78125 28.4375 21.523438 28.972656 22.34375 C 27.992188 22.285156 27.007812 22.050781 26.011719 21.75 C 28.332031 23.074219 29.367188 25.078125 29.160156 27.757812 C 29.996094 26.667969 30.738281 25.585938 31.417969 24.46875 C 31.371094 24.992188 31.632812 25.53125 32.121094 25.8125 C 32.808594 26.207031 33.683594 25.972656 34.078125 25.285156 C 34.464844 24.609375 34.238281 23.734375 33.550781 23.339844 C 33.0625 23.058594 32.46875 23.09375 32.035156 23.394531 C 32.65625 22.257812 33.230469 21.074219 33.757812 19.804688 Z M 33.757812 19.804688 "/>
</g>
<g clip-path="url(#clip4)" clip-rule="nonzero">
<path style=" stroke:none;fill-rule:evenodd;fill:rgb(100%,34.117647%,7.45098%);fill-opacity:1;" d="M 19.523438 28.019531 C 21.9375 26.863281 23.171875 24.957031 23.152344 22.277344 C 23.386719 23.292969 23.679688 24.269531 24.109375 25.152344 C 24.550781 24.269531 24.84375 23.292969 25.078125 22.277344 C 25.058594 24.957031 26.292969 26.863281 28.707031 28.019531 C 27.34375 28.199219 26.039062 28.304688 24.730469 28.324219 C 25.210938 28.558594 25.539062 29.046875 25.539062 29.609375 C 25.539062 30.398438 24.902344 31.039062 24.109375 31.039062 C 23.332031 31.039062 22.691406 30.398438 22.691406 29.609375 C 22.691406 29.046875 23.019531 28.558594 23.488281 28.324219 C 22.191406 28.304688 20.886719 28.199219 19.523438 28.019531 Z M 19.523438 28.019531 "/>
</g>
<g clip-path="url(#clip5)" clip-rule="nonzero">
<path style=" stroke:none;fill-rule:evenodd;fill:rgb(90.980392%,2.745098%,32.54902%);fill-opacity:1;" d="M 14.472656 19.804688 C 16.683594 21.316406 18.949219 21.429688 21.261719 20.074219 C 20.5 20.78125 19.792969 21.523438 19.257812 22.34375 C 20.238281 22.285156 21.222656 22.050781 22.222656 21.75 C 19.898438 23.074219 18.863281 25.078125 19.070312 27.757812 C 18.234375 26.667969 17.492188 25.585938 16.8125 24.46875 C 16.851562 24.992188 16.597656 25.53125 16.109375 25.8125 C 15.421875 26.207031 14.546875 25.972656 14.152344 25.285156 C 13.757812 24.609375 13.992188 23.734375 14.679688 23.339844 C 15.167969 23.058594 15.761719 23.09375 16.195312 23.394531 C 15.5625 22.257812 15 21.074219 14.472656 19.804688 Z M 14.472656 19.804688 "/>
</g>
<g clip-path="url(#clip6)" clip-rule="nonzero">
<path style=" stroke:none;fill-rule:evenodd;fill:rgb(34.509804%,31.372549%,63.137255%);fill-opacity:1;" d="M 19.070312 11.320312 C 18.863281 13.992188 19.898438 16.003906 22.222656 17.332031 C 21.222656 17.027344 20.238281 16.792969 19.257812 16.738281 C 19.792969 17.554688 20.5 18.289062 21.261719 19.003906 C 18.949219 17.648438 16.683594 17.761719 14.472656 19.277344 C 15 18.007812 15.5625 16.824219 16.195312 15.683594 C 15.761719 15.984375 15.167969 16.023438 14.679688 15.742188 C 13.992188 15.347656 13.757812 14.472656 14.152344 13.785156 C 14.546875 13.109375 15.421875 12.875 16.109375 13.269531 C 16.597656 13.550781 16.851562 14.078125 16.8125 14.613281 C 17.492188 13.492188 18.234375 12.414062 19.070312 11.320312 Z M 19.070312 11.320312 "/>
</g>
<path style=" stroke:none;fill-rule:nonzero;fill:rgb(100%,100%,100%);fill-opacity:1;" d="M 16.683594 32.136719 C 16.871094 32.136719 17.039062 32.179688 17.183594 32.265625 C 17.328125 32.355469 17.441406 32.472656 17.527344 32.625 C 17.605469 32.773438 17.648438 32.941406 17.648438 33.128906 L 17.648438 33.1875 C 17.648438 33.375 17.605469 33.542969 17.527344 33.695312 C 17.441406 33.847656 17.328125 33.96875 17.183594 34.054688 C 17.039062 34.140625 16.871094 34.183594 16.683594 34.183594 L 15.957031 34.183594 L 15.957031 35.160156 L 14.988281 35.160156 L 14.988281 32.136719 Z M 15.957031 33.476562 L 16.359375 33.476562 C 16.460938 33.476562 16.535156 33.453125 16.589844 33.398438 C 16.640625 33.347656 16.664062 33.273438 16.664062 33.183594 L 16.664062 33.148438 C 16.664062 33.054688 16.640625 32.980469 16.589844 32.929688 C 16.535156 32.878906 16.460938 32.851562 16.359375 32.851562 L 15.957031 32.851562 Z M 15.957031 33.476562 "/>
<path style=" stroke:none;fill-rule:nonzero;fill:rgb(100%,100%,100%);fill-opacity:1;" d="M 19.878906 32.082031 C 20.328125 32.082031 20.679688 32.195312 20.941406 32.421875 C 21.203125 32.644531 21.332031 32.964844 21.332031 33.378906 L 20.40625 33.378906 C 20.40625 33.203125 20.359375 33.066406 20.269531 32.964844 C 20.175781 32.859375 20.046875 32.808594 19.875 32.808594 C 19.679688 32.808594 19.535156 32.871094 19.441406 32.996094 C 19.347656 33.117188 19.304688 33.289062 19.304688 33.507812 L 19.304688 33.789062 C 19.304688 34.003906 19.347656 34.175781 19.441406 34.300781 C 19.535156 34.425781 19.675781 34.484375 19.867188 34.484375 C 20.054688 34.484375 20.195312 34.4375 20.292969 34.34375 C 20.386719 34.246094 20.4375 34.109375 20.4375 33.933594 L 21.332031 33.933594 C 21.332031 34.347656 21.207031 34.664062 20.953125 34.882812 C 20.699219 35.101562 20.339844 35.210938 19.878906 35.210938 C 19.363281 35.210938 18.972656 35.078125 18.707031 34.816406 C 18.445312 34.554688 18.3125 34.164062 18.3125 33.648438 C 18.3125 33.132812 18.445312 32.742188 18.707031 32.480469 C 18.972656 32.214844 19.363281 32.082031 19.878906 32.082031 Z M 19.878906 32.082031 "/>
<path style=" stroke:none;fill-rule:nonzero;fill:rgb(100%,100%,100%);fill-opacity:1;" d="M 25.003906 33.0625 C 25.003906 33.246094 24.953125 33.414062 24.855469 33.566406 C 24.753906 33.714844 24.609375 33.824219 24.417969 33.894531 L 25.09375 35.160156 L 24.003906 35.160156 L 23.46875 34.058594 L 23.105469 34.058594 L 23.105469 35.160156 L 22.136719 35.160156 L 22.136719 32.136719 L 23.984375 32.136719 C 24.199219 32.136719 24.386719 32.179688 24.539062 32.261719 C 24.695312 32.347656 24.808594 32.457031 24.886719 32.601562 C 24.964844 32.742188 25.003906 32.894531 25.003906 33.0625 Z M 24.015625 33.101562 C 24.015625 33.023438 23.988281 32.960938 23.9375 32.90625 C 23.882812 32.855469 23.820312 32.828125 23.746094 32.828125 L 23.105469 32.828125 L 23.105469 33.382812 L 23.746094 33.382812 C 23.820312 33.382812 23.882812 33.355469 23.9375 33.300781 C 23.988281 33.25 24.015625 33.183594 24.015625 33.101562 Z M 24.015625 33.101562 "/>
<path style=" stroke:none;fill-rule:nonzero;fill:rgb(100%,100%,100%);fill-opacity:1;" d="M 28.105469 35.160156 L 27.710938 33.320312 L 27.695312 33.320312 L 27.304688 35.160156 L 26.238281 35.160156 L 25.53125 32.136719 L 26.539062 32.136719 L 26.886719 33.851562 L 26.902344 33.851562 L 27.246094 32.136719 L 28.203125 32.136719 L 28.570312 33.851562 L 28.585938 33.851562 L 28.914062 32.136719 L 29.875 32.136719 L 29.171875 35.160156 Z M 28.105469 35.160156 "/>
<path style=" stroke:none;fill-rule:nonzero;fill:rgb(100%,100%,100%);fill-opacity:1;" d="M 32.53125 35.160156 L 32.402344 34.734375 L 31.34375 34.734375 L 31.214844 35.160156 L 30.222656 35.160156 L 31.324219 32.136719 L 32.453125 32.136719 L 33.558594 35.160156 Z M 31.546875 34.058594 L 32.199219 34.058594 L 31.882812 32.980469 L 31.863281 32.980469 Z M 31.546875 34.058594 "/>
<path style=" stroke:none;fill-rule:nonzero;fill:rgb(100%,100%,100%);fill-opacity:1;" d="M 15.382812 36.097656 C 15.382812 36.199219 15.34375 36.28125 15.273438 36.335938 C 15.203125 36.390625 15.105469 36.417969 14.972656 36.417969 L 14.851562 36.417969 L 14.851562 36.820312 L 14.734375 36.820312 L 14.734375 35.800781 L 15 35.800781 C 15.253906 35.800781 15.382812 35.898438 15.382812 36.097656 Z M 14.851562 36.316406 L 14.960938 36.316406 C 15.066406 36.316406 15.140625 36.300781 15.1875 36.265625 C 15.234375 36.234375 15.257812 36.175781 15.257812 36.101562 C 15.257812 36.035156 15.234375 35.984375 15.191406 35.953125 C 15.148438 35.917969 15.078125 35.902344 14.984375 35.902344 L 14.851562 35.902344 Z M 14.851562 36.316406 "/>
<path style=" stroke:none;fill-rule:nonzero;fill:rgb(100%,100%,100%);fill-opacity:1;" d="M 16.480469 36.308594 C 16.480469 36.472656 16.441406 36.601562 16.355469 36.695312 C 16.273438 36.789062 16.160156 36.835938 16.011719 36.835938 C 15.863281 36.835938 15.746094 36.789062 15.664062 36.699219 C 15.582031 36.605469 15.542969 36.476562 15.542969 36.308594 C 15.542969 36.140625 15.582031 36.011719 15.664062 35.921875 C 15.746094 35.828125 15.863281 35.785156 16.015625 35.785156 C 16.160156 35.785156 16.273438 35.832031 16.355469 35.921875 C 16.441406 36.015625 16.480469 36.144531 16.480469 36.308594 Z M 15.667969 36.308594 C 15.667969 36.449219 15.695312 36.554688 15.753906 36.625 C 15.816406 36.695312 15.902344 36.730469 16.011719 36.730469 C 16.128906 36.730469 16.210938 36.695312 16.269531 36.625 C 16.328125 36.554688 16.355469 36.449219 16.355469 36.308594 C 16.355469 36.171875 16.328125 36.066406 16.269531 35.996094 C 16.210938 35.925781 16.128906 35.890625 16.015625 35.890625 C 15.902344 35.890625 15.816406 35.925781 15.753906 36 C 15.695312 36.070312 15.667969 36.171875 15.667969 36.308594 Z M 15.667969 36.308594 "/>
<path style=" stroke:none;fill-rule:nonzero;fill:rgb(100%,100%,100%);fill-opacity:1;" d="M 17.285156 36.550781 C 17.285156 36.640625 17.253906 36.710938 17.1875 36.761719 C 17.121094 36.8125 17.035156 36.835938 16.925781 36.835938 C 16.804688 36.835938 16.710938 36.820312 16.644531 36.789062 L 16.644531 36.671875 C 16.6875 36.691406 16.730469 36.707031 16.78125 36.71875 C 16.832031 36.726562 16.878906 36.730469 16.929688 36.730469 C 17.007812 36.730469 17.066406 36.714844 17.105469 36.6875 C 17.144531 36.65625 17.164062 36.613281 17.164062 36.5625 C 17.164062 36.523438 17.160156 36.496094 17.144531 36.472656 C 17.128906 36.453125 17.105469 36.429688 17.074219 36.410156 C 17.039062 36.390625 16.988281 36.371094 16.921875 36.347656 C 16.828125 36.3125 16.757812 36.269531 16.71875 36.226562 C 16.675781 36.179688 16.65625 36.117188 16.65625 36.042969 C 16.65625 35.964844 16.6875 35.902344 16.746094 35.855469 C 16.804688 35.808594 16.882812 35.785156 16.980469 35.785156 C 17.082031 35.785156 17.175781 35.804688 17.261719 35.839844 L 17.222656 35.945312 C 17.140625 35.910156 17.058594 35.890625 16.976562 35.890625 C 16.914062 35.890625 16.867188 35.90625 16.832031 35.933594 C 16.796875 35.957031 16.777344 35.996094 16.777344 36.042969 C 16.777344 36.078125 16.785156 36.109375 16.796875 36.132812 C 16.808594 36.152344 16.832031 36.175781 16.863281 36.195312 C 16.894531 36.210938 16.941406 36.234375 17.003906 36.257812 C 17.113281 36.292969 17.183594 36.335938 17.226562 36.378906 C 17.265625 36.421875 17.285156 36.480469 17.285156 36.550781 Z M 17.285156 36.550781 "/>
<path style=" stroke:none;fill-rule:nonzero;fill:rgb(100%,100%,100%);fill-opacity:1;" d="M 17.808594 36.820312 L 17.691406 36.820312 L 17.691406 35.90625 L 17.367188 35.90625 L 17.367188 35.800781 L 18.132812 35.800781 L 18.132812 35.90625 L 17.808594 35.90625 Z M 17.808594 36.820312 "/>
<path style=" stroke:none;fill-rule:nonzero;fill:rgb(100%,100%,100%);fill-opacity:1;" d="M 18.929688 36.820312 L 18.804688 36.496094 L 18.394531 36.496094 L 18.269531 36.820312 L 18.148438 36.820312 L 18.550781 35.796875 L 18.652344 35.796875 L 19.054688 36.820312 Z M 18.765625 36.390625 L 18.648438 36.074219 C 18.632812 36.035156 18.617188 35.984375 18.597656 35.925781 C 18.589844 35.96875 18.574219 36.019531 18.554688 36.074219 L 18.433594 36.390625 Z M 18.765625 36.390625 "/>
<path style=" stroke:none;fill-rule:nonzero;fill:rgb(100%,100%,100%);fill-opacity:1;" d="M 19.191406 36.820312 L 19.191406 35.800781 L 19.3125 35.800781 L 19.3125 36.714844 L 19.761719 36.714844 L 19.761719 36.820312 Z M 19.191406 36.820312 "/>
<path style=" stroke:none;fill-rule:nonzero;fill:rgb(100%,100%,100%);fill-opacity:1;" d="M 20.746094 35.890625 C 20.632812 35.890625 20.546875 35.929688 20.480469 36.003906 C 20.414062 36.078125 20.382812 36.179688 20.382812 36.3125 C 20.382812 36.445312 20.414062 36.546875 20.476562 36.621094 C 20.539062 36.695312 20.628906 36.730469 20.746094 36.730469 C 20.816406 36.730469 20.898438 36.71875 20.988281 36.691406 L 20.988281 36.796875 C 20.917969 36.824219 20.828125 36.835938 20.726562 36.835938 C 20.574219 36.835938 20.460938 36.789062 20.378906 36.699219 C 20.296875 36.605469 20.253906 36.476562 20.253906 36.308594 C 20.253906 36.203125 20.273438 36.109375 20.3125 36.03125 C 20.351562 35.953125 20.410156 35.890625 20.484375 35.851562 C 20.558594 35.808594 20.648438 35.785156 20.746094 35.785156 C 20.851562 35.785156 20.945312 35.804688 21.027344 35.84375 L 20.976562 35.945312 C 20.898438 35.910156 20.820312 35.890625 20.746094 35.890625 Z M 20.746094 35.890625 "/>
<path style=" stroke:none;fill-rule:nonzero;fill:rgb(100%,100%,100%);fill-opacity:1;" d="M 22.097656 36.308594 C 22.097656 36.472656 22.054688 36.601562 21.972656 36.695312 C 21.890625 36.789062 21.777344 36.835938 21.628906 36.835938 C 21.480469 36.835938 21.363281 36.789062 21.28125 36.699219 C 21.199219 36.605469 21.15625 36.476562 21.15625 36.308594 C 21.15625 36.140625 21.199219 36.011719 21.28125 35.921875 C 21.363281 35.828125 21.480469 35.785156 21.628906 35.785156 C 21.777344 35.785156 21.890625 35.832031 21.972656 35.921875 C 22.054688 36.015625 22.097656 36.144531 22.097656 36.308594 Z M 21.28125 36.308594 C 21.28125 36.449219 21.3125 36.554688 21.371094 36.625 C 21.429688 36.695312 21.515625 36.730469 21.628906 36.730469 C 21.742188 36.730469 21.828125 36.695312 21.886719 36.625 C 21.941406 36.554688 21.972656 36.449219 21.972656 36.308594 C 21.972656 36.171875 21.941406 36.066406 21.886719 35.996094 C 21.828125 35.925781 21.742188 35.890625 21.628906 35.890625 C 21.515625 35.890625 21.429688 35.925781 21.371094 36 C 21.3125 36.070312 21.28125 36.171875 21.28125 36.308594 Z M 21.28125 36.308594 "/>
<path style=" stroke:none;fill-rule:nonzero;fill:rgb(100%,100%,100%);fill-opacity:1;" d="M 22.324219 36.820312 L 22.324219 35.800781 L 22.445312 35.800781 L 22.445312 36.714844 L 22.894531 36.714844 L 22.894531 36.820312 Z M 22.324219 36.820312 "/>
<path style=" stroke:none;fill-rule:nonzero;fill:rgb(100%,100%,100%);fill-opacity:1;" d="M 23.953125 36.308594 C 23.953125 36.472656 23.914062 36.601562 23.828125 36.695312 C 23.746094 36.789062 23.632812 36.835938 23.484375 36.835938 C 23.335938 36.835938 23.21875 36.789062 23.136719 36.699219 C 23.054688 36.605469 23.015625 36.476562 23.015625 36.308594 C 23.015625 36.140625 23.054688 36.011719 23.136719 35.921875 C 23.21875 35.828125 23.335938 35.785156 23.488281 35.785156 C 23.632812 35.785156 23.746094 35.832031 23.828125 35.921875 C 23.914062 36.015625 23.953125 36.144531 23.953125 36.308594 Z M 23.140625 36.308594 C 23.140625 36.449219 23.167969 36.554688 23.226562 36.625 C 23.289062 36.695312 23.375 36.730469 23.484375 36.730469 C 23.601562 36.730469 23.683594 36.695312 23.742188 36.625 C 23.800781 36.554688 23.828125 36.449219 23.828125 36.308594 C 23.828125 36.171875 23.800781 36.066406 23.742188 35.996094 C 23.683594 35.925781 23.601562 35.890625 23.488281 35.890625 C 23.375 35.890625 23.289062 35.925781 23.226562 36 C 23.167969 36.070312 23.140625 36.171875 23.140625 36.308594 Z M 23.140625 36.308594 "/>
<path style=" stroke:none;fill-rule:nonzero;fill:rgb(100%,100%,100%);fill-opacity:1;" d="M 24.980469 36.820312 L 24.84375 36.820312 L 24.285156 35.964844 L 24.28125 35.964844 C 24.289062 36.066406 24.292969 36.15625 24.292969 36.238281 L 24.292969 36.820312 L 24.183594 36.820312 L 24.183594 35.800781 L 24.316406 35.800781 L 24.875 36.652344 L 24.878906 36.652344 C 24.878906 36.640625 24.875 36.601562 24.875 36.53125 C 24.871094 36.464844 24.871094 36.414062 24.871094 36.386719 L 24.871094 35.800781 L 24.980469 35.800781 Z M 24.980469 36.820312 "/>
<path style=" stroke:none;fill-rule:nonzero;fill:rgb(100%,100%,100%);fill-opacity:1;" d="M 25.523438 36.3125 L 25.792969 35.800781 L 25.921875 35.800781 L 25.582031 36.425781 L 25.582031 36.820312 L 25.460938 36.820312 L 25.460938 36.429688 L 25.121094 35.800781 L 25.25 35.800781 Z M 25.523438 36.3125 "/>
<path style=" stroke:none;fill-rule:nonzero;fill:rgb(100%,100%,100%);fill-opacity:1;" d="M 26.554688 36.394531 L 26.554688 36.820312 L 26.433594 36.820312 L 26.433594 35.800781 L 26.714844 35.800781 C 26.839844 35.800781 26.933594 35.824219 26.992188 35.875 C 27.050781 35.921875 27.082031 35.992188 27.082031 36.089844 C 27.082031 36.222656 27.015625 36.316406 26.878906 36.363281 L 27.15625 36.820312 L 27.015625 36.820312 L 26.769531 36.394531 Z M 26.554688 36.292969 L 26.71875 36.292969 C 26.800781 36.292969 26.863281 36.277344 26.902344 36.246094 C 26.941406 36.210938 26.960938 36.160156 26.960938 36.09375 C 26.960938 36.027344 26.9375 35.976562 26.898438 35.949219 C 26.859375 35.917969 26.796875 35.90625 26.710938 35.90625 L 26.554688 35.90625 Z M 26.554688 36.292969 "/>
<path style=" stroke:none;fill-rule:nonzero;fill:rgb(100%,100%,100%);fill-opacity:1;" d="M 27.890625 36.820312 L 27.320312 36.820312 L 27.320312 35.800781 L 27.890625 35.800781 L 27.890625 35.90625 L 27.4375 35.90625 L 27.4375 36.234375 L 27.863281 36.234375 L 27.863281 36.339844 L 27.4375 36.339844 L 27.4375 36.714844 L 27.890625 36.714844 Z M 27.890625 36.820312 "/>
<path style=" stroke:none;fill-rule:nonzero;fill:rgb(100%,100%,100%);fill-opacity:1;" d="M 28.691406 36.550781 C 28.691406 36.640625 28.660156 36.710938 28.59375 36.761719 C 28.527344 36.8125 28.441406 36.835938 28.328125 36.835938 C 28.210938 36.835938 28.117188 36.820312 28.050781 36.789062 L 28.050781 36.671875 C 28.09375 36.691406 28.136719 36.707031 28.1875 36.71875 C 28.234375 36.726562 28.285156 36.730469 28.335938 36.730469 C 28.414062 36.730469 28.472656 36.714844 28.511719 36.6875 C 28.550781 36.65625 28.570312 36.613281 28.570312 36.5625 C 28.570312 36.523438 28.5625 36.496094 28.550781 36.472656 C 28.535156 36.453125 28.511719 36.429688 28.480469 36.410156 C 28.445312 36.390625 28.394531 36.371094 28.328125 36.347656 C 28.234375 36.3125 28.164062 36.269531 28.125 36.226562 C 28.082031 36.179688 28.0625 36.117188 28.0625 36.042969 C 28.0625 35.964844 28.09375 35.902344 28.152344 35.855469 C 28.210938 35.808594 28.289062 35.785156 28.386719 35.785156 C 28.488281 35.785156 28.582031 35.804688 28.667969 35.839844 L 28.628906 35.945312 C 28.546875 35.910156 28.464844 35.890625 28.382812 35.890625 C 28.320312 35.890625 28.273438 35.90625 28.234375 35.933594 C 28.203125 35.957031 28.183594 35.996094 28.183594 36.042969 C 28.183594 36.078125 28.191406 36.109375 28.203125 36.132812 C 28.214844 36.152344 28.238281 36.175781 28.265625 36.195312 C 28.300781 36.210938 28.347656 36.234375 28.410156 36.257812 C 28.519531 36.292969 28.589844 36.335938 28.632812 36.378906 C 28.671875 36.421875 28.691406 36.480469 28.691406 36.550781 Z M 28.691406 36.550781 "/>
<path style=" stroke:none;fill-rule:nonzero;fill:rgb(100%,100%,100%);fill-opacity:1;" d="M 28.902344 36.820312 L 28.902344 35.800781 L 29.019531 35.800781 L 29.019531 36.820312 Z M 28.902344 36.820312 "/>
<path style=" stroke:none;fill-rule:nonzero;fill:rgb(100%,100%,100%);fill-opacity:1;" d="M 30.117188 36.300781 C 30.117188 36.46875 30.070312 36.597656 29.980469 36.6875 C 29.886719 36.777344 29.753906 36.820312 29.582031 36.820312 L 29.300781 36.820312 L 29.300781 35.800781 L 29.613281 35.800781 C 29.773438 35.800781 29.894531 35.84375 29.984375 35.933594 C 30.070312 36.019531 30.117188 36.140625 30.117188 36.300781 Z M 29.992188 36.304688 C 29.992188 36.171875 29.957031 36.070312 29.890625 36.003906 C 29.824219 35.9375 29.722656 35.902344 29.589844 35.902344 L 29.417969 35.902344 L 29.417969 36.71875 L 29.566406 36.71875 C 29.707031 36.71875 29.8125 36.683594 29.882812 36.613281 C 29.957031 36.542969 29.992188 36.441406 29.992188 36.304688 Z M 29.992188 36.304688 "/>
<path style=" stroke:none;fill-rule:nonzero;fill:rgb(100%,100%,100%);fill-opacity:1;" d="M 30.914062 36.820312 L 30.34375 36.820312 L 30.34375 35.800781 L 30.914062 35.800781 L 30.914062 35.90625 L 30.460938 35.90625 L 30.460938 36.234375 L 30.886719 36.234375 L 30.886719 36.339844 L 30.460938 36.339844 L 30.460938 36.714844 L 30.914062 36.714844 Z M 30.914062 36.820312 "/>
<path style=" stroke:none;fill-rule:nonzero;fill:rgb(100%,100%,100%);fill-opacity:1;" d="M 31.9375 36.820312 L 31.800781 36.820312 L 31.242188 35.964844 L 31.238281 35.964844 C 31.246094 36.066406 31.25 36.15625 31.25 36.238281 L 31.25 36.820312 L 31.140625 36.820312 L 31.140625 35.800781 L 31.273438 35.800781 L 31.832031 36.652344 L 31.835938 36.652344 C 31.835938 36.640625 31.832031 36.601562 31.832031 36.53125 C 31.828125 36.464844 31.828125 36.414062 31.828125 36.386719 L 31.828125 35.800781 L 31.9375 35.800781 Z M 31.9375 36.820312 "/>
<path style=" stroke:none;fill-rule:nonzero;fill:rgb(100%,100%,100%);fill-opacity:1;" d="M 32.53125 36.820312 L 32.414062 36.820312 L 32.414062 35.90625 L 32.089844 35.90625 L 32.089844 35.800781 L 32.859375 35.800781 L 32.859375 35.90625 L 32.53125 35.90625 Z M 32.53125 36.820312 "/>
<path style=" stroke:none;fill-rule:nonzero;fill:rgb(100%,100%,100%);fill-opacity:1;" d="M 33.585938 36.550781 C 33.585938 36.640625 33.554688 36.710938 33.488281 36.761719 C 33.421875 36.8125 33.335938 36.835938 33.226562 36.835938 C 33.105469 36.835938 33.011719 36.820312 32.945312 36.789062 L 32.945312 36.671875 C 32.988281 36.691406 33.03125 36.707031 33.082031 36.71875 C 33.132812 36.726562 33.179688 36.730469 33.230469 36.730469 C 33.308594 36.730469 33.367188 36.714844 33.40625 36.6875 C 33.445312 36.65625 33.464844 36.613281 33.464844 36.5625 C 33.464844 36.523438 33.460938 36.496094 33.445312 36.472656 C 33.429688 36.453125 33.40625 36.429688 33.375 36.410156 C 33.339844 36.390625 33.289062 36.371094 33.222656 36.347656 C 33.128906 36.3125 33.058594 36.269531 33.019531 36.226562 C 32.976562 36.179688 32.957031 36.117188 32.957031 36.042969 C 32.957031 35.964844 32.988281 35.902344 33.046875 35.855469 C 33.105469 35.808594 33.183594 35.785156 33.28125 35.785156 C 33.382812 35.785156 33.476562 35.804688 33.5625 35.839844 L 33.523438 35.945312 C 33.441406 35.910156 33.359375 35.890625 33.277344 35.890625 C 33.214844 35.890625 33.167969 35.90625 33.132812 35.933594 C 33.097656 35.957031 33.078125 35.996094 33.078125 36.042969 C 33.078125 36.078125 33.085938 36.109375 33.097656 36.132812 C 33.109375 36.152344 33.132812 36.175781 33.164062 36.195312 C 33.195312 36.210938 33.242188 36.234375 33.304688 36.257812 C 33.414062 36.292969 33.484375 36.335938 33.527344 36.378906 C 33.566406 36.421875 33.585938 36.480469 33.585938 36.550781 Z M 33.585938 36.550781 "/>
<path style=" stroke:none;fill-rule:nonzero;fill:rgb(100%,100%,100%);fill-opacity:1;" d="M 17.097656 38.820312 L 16.980469 38.820312 L 16.773438 38.136719 C 16.765625 38.109375 16.753906 38.070312 16.742188 38.023438 C 16.730469 37.976562 16.722656 37.949219 16.722656 37.941406 C 16.714844 38 16.695312 38.070312 16.675781 38.140625 L 16.476562 38.820312 L 16.359375 38.820312 L 16.085938 37.800781 L 16.210938 37.800781 L 16.375 38.429688 C 16.394531 38.519531 16.410156 38.597656 16.421875 38.671875 C 16.433594 38.585938 16.453125 38.503906 16.476562 38.421875 L 16.660156 37.800781 L 16.789062 37.800781 L 16.980469 38.425781 C 17 38.496094 17.019531 38.578125 17.035156 38.671875 C 17.042969 38.605469 17.0625 38.523438 17.085938 38.429688 L 17.246094 37.800781 L 17.375 37.800781 Z M 17.097656 38.820312 "/>
<path style=" stroke:none;fill-rule:nonzero;fill:rgb(100%,100%,100%);fill-opacity:1;" d="M 18.101562 38.820312 L 17.53125 38.820312 L 17.53125 37.800781 L 18.101562 37.800781 L 18.101562 37.90625 L 17.648438 37.90625 L 17.648438 38.234375 L 18.074219 38.234375 L 18.074219 38.339844 L 17.648438 38.339844 L 17.648438 38.714844 L 18.101562 38.714844 Z M 18.101562 38.820312 "/>
<path style=" stroke:none;fill-rule:nonzero;fill:rgb(100%,100%,100%);fill-opacity:1;" d="M 18.328125 38.820312 L 18.328125 37.800781 L 18.445312 37.800781 L 18.445312 38.714844 L 18.898438 38.714844 L 18.898438 38.820312 Z M 18.328125 38.820312 "/>
<path style=" stroke:none;fill-rule:nonzero;fill:rgb(100%,100%,100%);fill-opacity:1;" d="M 19.1875 38.820312 L 19.070312 38.820312 L 19.070312 37.800781 L 19.640625 37.800781 L 19.640625 37.90625 L 19.1875 37.90625 L 19.1875 38.28125 L 19.613281 38.28125 L 19.613281 38.382812 L 19.1875 38.382812 Z M 19.1875 38.820312 "/>
<path style=" stroke:none;fill-rule:nonzero;fill:rgb(100%,100%,100%);fill-opacity:1;" d="M 20.453125 38.820312 L 20.324219 38.496094 L 19.914062 38.496094 L 19.789062 38.820312 L 19.667969 38.820312 L 20.074219 37.796875 L 20.171875 37.796875 L 20.574219 38.820312 Z M 20.289062 38.390625 L 20.167969 38.074219 C 20.152344 38.035156 20.136719 37.984375 20.121094 37.925781 C 20.113281 37.96875 20.097656 38.019531 20.078125 38.074219 L 19.957031 38.390625 Z M 20.289062 38.390625 "/>
<path style=" stroke:none;fill-rule:nonzero;fill:rgb(100%,100%,100%);fill-opacity:1;" d="M 20.832031 38.394531 L 20.832031 38.820312 L 20.714844 38.820312 L 20.714844 37.800781 L 20.996094 37.800781 C 21.121094 37.800781 21.214844 37.824219 21.273438 37.875 C 21.332031 37.921875 21.363281 37.992188 21.363281 38.089844 C 21.363281 38.222656 21.292969 38.316406 21.160156 38.363281 L 21.4375 38.820312 L 21.296875 38.820312 L 21.046875 38.394531 Z M 20.832031 38.292969 L 21 38.292969 C 21.082031 38.292969 21.140625 38.277344 21.179688 38.246094 C 21.21875 38.210938 21.238281 38.160156 21.238281 38.09375 C 21.238281 38.027344 21.21875 37.976562 21.179688 37.949219 C 21.140625 37.917969 21.078125 37.90625 20.988281 37.90625 L 20.832031 37.90625 Z M 20.832031 38.292969 "/>
<path style=" stroke:none;fill-rule:nonzero;fill:rgb(100%,100%,100%);fill-opacity:1;" d="M 22.171875 38.820312 L 21.597656 38.820312 L 21.597656 37.800781 L 22.171875 37.800781 L 22.171875 37.90625 L 21.71875 37.90625 L 21.71875 38.234375 L 22.144531 38.234375 L 22.144531 38.339844 L 21.71875 38.339844 L 21.71875 38.714844 L 22.171875 38.714844 Z M 22.171875 38.820312 "/>
<path style=" stroke:none;fill-rule:nonzero;fill:rgb(100%,100%,100%);fill-opacity:1;" d="M 23.410156 38.820312 L 23.285156 38.496094 L 22.875 38.496094 L 22.75 38.820312 L 22.628906 38.820312 L 23.03125 37.796875 L 23.132812 37.796875 L 23.535156 38.820312 Z M 23.246094 38.390625 L 23.128906 38.074219 C 23.113281 38.035156 23.097656 37.984375 23.078125 37.925781 C 23.070312 37.96875 23.054688 38.019531 23.035156 38.074219 L 22.914062 38.390625 Z M 23.246094 38.390625 "/>
<path style=" stroke:none;fill-rule:nonzero;fill:rgb(100%,100%,100%);fill-opacity:1;" d="M 24.25 38.550781 C 24.25 38.640625 24.21875 38.710938 24.152344 38.761719 C 24.085938 38.8125 24 38.835938 23.886719 38.835938 C 23.765625 38.835938 23.671875 38.820312 23.609375 38.789062 L 23.609375 38.671875 C 23.648438 38.691406 23.695312 38.707031 23.742188 38.71875 C 23.792969 38.726562 23.84375 38.730469 23.890625 38.730469 C 23.972656 38.730469 24.03125 38.714844 24.070312 38.6875 C 24.109375 38.65625 24.128906 38.613281 24.128906 38.5625 C 24.128906 38.523438 24.121094 38.496094 24.109375 38.472656 C 24.09375 38.453125 24.070312 38.429688 24.039062 38.410156 C 24.003906 38.390625 23.953125 38.371094 23.886719 38.347656 C 23.789062 38.3125 23.722656 38.269531 23.679688 38.226562 C 23.640625 38.179688 23.621094 38.117188 23.621094 38.042969 C 23.621094 37.964844 23.648438 37.902344 23.707031 37.855469 C 23.769531 37.808594 23.847656 37.785156 23.945312 37.785156 C 24.042969 37.785156 24.136719 37.804688 24.226562 37.839844 L 24.1875 37.945312 C 24.101562 37.910156 24.019531 37.890625 23.941406 37.890625 C 23.878906 37.890625 23.828125 37.90625 23.792969 37.933594 C 23.757812 37.957031 23.742188 37.996094 23.742188 38.042969 C 23.742188 38.078125 23.746094 38.109375 23.761719 38.132812 C 23.773438 38.152344 23.792969 38.175781 23.824219 38.195312 C 23.855469 38.210938 23.90625 38.234375 23.96875 38.257812 C 24.074219 38.292969 24.148438 38.335938 24.191406 38.378906 C 24.230469 38.421875 24.25 38.480469 24.25 38.550781 Z M 24.25 38.550781 "/>
<path style=" stroke:none;fill-rule:nonzero;fill:rgb(100%,100%,100%);fill-opacity:1;" d="M 25.035156 38.550781 C 25.035156 38.640625 25.003906 38.710938 24.9375 38.761719 C 24.871094 38.8125 24.785156 38.835938 24.671875 38.835938 C 24.550781 38.835938 24.460938 38.820312 24.394531 38.789062 L 24.394531 38.671875 C 24.4375 38.691406 24.480469 38.707031 24.53125 38.71875 C 24.578125 38.726562 24.628906 38.730469 24.675781 38.730469 C 24.757812 38.730469 24.816406 38.714844 24.855469 38.6875 C 24.894531 38.65625 24.914062 38.613281 24.914062 38.5625 C 24.914062 38.523438 24.90625 38.496094 24.894531 38.472656 C 24.878906 38.453125 24.855469 38.429688 24.824219 38.410156 C 24.789062 38.390625 24.738281 38.371094 24.671875 38.347656 C 24.578125 38.3125 24.507812 38.269531 24.46875 38.226562 C 24.425781 38.179688 24.40625 38.117188 24.40625 38.042969 C 24.40625 37.964844 24.4375 37.902344 24.492188 37.855469 C 24.554688 37.808594 24.632812 37.785156 24.730469 37.785156 C 24.832031 37.785156 24.925781 37.804688 25.011719 37.839844 L 24.972656 37.945312 C 24.886719 37.910156 24.804688 37.890625 24.726562 37.890625 C 24.664062 37.890625 24.617188 37.90625 24.578125 37.933594 C 24.542969 37.957031 24.527344 37.996094 24.527344 38.042969 C 24.527344 38.078125 24.535156 38.109375 24.546875 38.132812 C 24.558594 38.152344 24.578125 38.175781 24.609375 38.195312 C 24.640625 38.210938 24.691406 38.234375 24.753906 38.257812 C 24.859375 38.292969 24.933594 38.335938 24.976562 38.378906 C 25.015625 38.421875 25.035156 38.480469 25.035156 38.550781 Z M 25.035156 38.550781 "/>
<path style=" stroke:none;fill-rule:nonzero;fill:rgb(100%,100%,100%);fill-opacity:1;" d="M 26.132812 38.308594 C 26.132812 38.472656 26.089844 38.601562 26.007812 38.695312 C 25.925781 38.789062 25.808594 38.835938 25.664062 38.835938 C 25.511719 38.835938 25.398438 38.789062 25.316406 38.699219 C 25.234375 38.605469 25.191406 38.476562 25.191406 38.308594 C 25.191406 38.140625 25.234375 38.011719 25.316406 37.921875 C 25.398438 37.828125 25.511719 37.785156 25.664062 37.785156 C 25.8125 37.785156 25.925781 37.832031 26.007812 37.921875 C 26.089844 38.015625 26.132812 38.144531 26.132812 38.308594 Z M 25.316406 38.308594 C 25.316406 38.449219 25.347656 38.554688 25.40625 38.625 C 25.464844 38.695312 25.550781 38.730469 25.664062 38.730469 C 25.777344 38.730469 25.863281 38.695312 25.917969 38.625 C 25.976562 38.554688 26.007812 38.449219 26.007812 38.308594 C 26.007812 38.171875 25.976562 38.066406 25.917969 37.996094 C 25.863281 37.925781 25.777344 37.890625 25.664062 37.890625 C 25.550781 37.890625 25.464844 37.925781 25.40625 38 C 25.347656 38.070312 25.316406 38.171875 25.316406 38.308594 Z M 25.316406 38.308594 "/>
<path style=" stroke:none;fill-rule:nonzero;fill:rgb(100%,100%,100%);fill-opacity:1;" d="M 26.796875 37.890625 C 26.683594 37.890625 26.597656 37.929688 26.53125 38.003906 C 26.464844 38.078125 26.433594 38.179688 26.433594 38.3125 C 26.433594 38.445312 26.464844 38.546875 26.527344 38.621094 C 26.589844 38.695312 26.679688 38.730469 26.796875 38.730469 C 26.867188 38.730469 26.949219 38.71875 27.039062 38.691406 L 27.039062 38.796875 C 26.96875 38.824219 26.882812 38.835938 26.777344 38.835938 C 26.628906 38.835938 26.511719 38.789062 26.429688 38.699219 C 26.347656 38.605469 26.304688 38.476562 26.304688 38.308594 C 26.304688 38.203125 26.324219 38.109375 26.363281 38.03125 C 26.40625 37.953125 26.460938 37.890625 26.535156 37.851562 C 26.609375 37.808594 26.699219 37.785156 26.796875 37.785156 C 26.90625 37.785156 27 37.804688 27.078125 37.84375 L 27.03125 37.945312 C 26.953125 37.910156 26.875 37.890625 26.796875 37.890625 Z M 26.796875 37.890625 "/>
<path style=" stroke:none;fill-rule:nonzero;fill:rgb(100%,100%,100%);fill-opacity:1;" d="M 27.261719 38.820312 L 27.261719 37.800781 L 27.378906 37.800781 L 27.378906 38.820312 Z M 27.261719 38.820312 "/>
<path style=" stroke:none;fill-rule:nonzero;fill:rgb(100%,100%,100%);fill-opacity:1;" d="M 28.304688 38.820312 L 28.175781 38.496094 L 27.765625 38.496094 L 27.640625 38.820312 L 27.519531 38.820312 L 27.925781 37.796875 L 28.023438 37.796875 L 28.425781 38.820312 Z M 28.140625 38.390625 L 28.019531 38.074219 C 28.003906 38.035156 27.988281 37.984375 27.972656 37.925781 C 27.964844 37.96875 27.949219 38.019531 27.929688 38.074219 L 27.808594 38.390625 Z M 28.140625 38.390625 "/>
<path style=" stroke:none;fill-rule:nonzero;fill:rgb(100%,100%,100%);fill-opacity:1;" d="M 28.882812 38.820312 L 28.761719 38.820312 L 28.761719 37.90625 L 28.4375 37.90625 L 28.4375 37.800781 L 29.207031 37.800781 L 29.207031 37.90625 L 28.882812 37.90625 Z M 28.882812 38.820312 "/>
<path style=" stroke:none;fill-rule:nonzero;fill:rgb(100%,100%,100%);fill-opacity:1;" d="M 29.359375 38.820312 L 29.359375 37.800781 L 29.476562 37.800781 L 29.476562 38.820312 Z M 29.359375 38.820312 "/>
<path style=" stroke:none;fill-rule:nonzero;fill:rgb(100%,100%,100%);fill-opacity:1;" d="M 30.644531 38.308594 C 30.644531 38.472656 30.601562 38.601562 30.519531 38.695312 C 30.4375 38.789062 30.324219 38.835938 30.175781 38.835938 C 30.027344 38.835938 29.910156 38.789062 29.828125 38.699219 C 29.746094 38.605469 29.707031 38.476562 29.707031 38.308594 C 29.707031 38.140625 29.746094 38.011719 29.828125 37.921875 C 29.910156 37.828125 30.027344 37.785156 30.179688 37.785156 C 30.324219 37.785156 30.4375 37.832031 30.519531 37.921875 C 30.601562 38.015625 30.644531 38.144531 30.644531 38.308594 Z M 29.832031 38.308594 C 29.832031 38.449219 29.859375 38.554688 29.917969 38.625 C 29.976562 38.695312 30.0625 38.730469 30.175781 38.730469 C 30.289062 38.730469 30.375 38.695312 30.433594 38.625 C 30.492188 38.554688 30.519531 38.449219 30.519531 38.308594 C 30.519531 38.171875 30.492188 38.066406 30.433594 37.996094 C 30.375 37.925781 30.289062 37.890625 30.179688 37.890625 C 30.0625 37.890625 29.976562 37.925781 29.917969 38 C 29.859375 38.070312 29.832031 38.171875 29.832031 38.308594 Z M 29.832031 38.308594 "/>
<path style=" stroke:none;fill-rule:nonzero;fill:rgb(100%,100%,100%);fill-opacity:1;" d="M 31.671875 38.820312 L 31.535156 38.820312 L 30.976562 37.964844 L 30.972656 37.964844 C 30.980469 38.066406 30.980469 38.15625 30.980469 38.238281 L 30.980469 38.820312 L 30.871094 38.820312 L 30.871094 37.800781 L 31.007812 37.800781 L 31.5625 38.652344 L 31.570312 38.652344 C 31.566406 38.640625 31.566406 38.601562 31.5625 38.53125 C 31.558594 38.464844 31.558594 38.414062 31.558594 38.386719 L 31.558594 37.800781 L 31.671875 37.800781 Z M 31.671875 38.820312 "/>
</g>
</svg>
