<?xml version="1.0" encoding="UTF-8"?>
<svg xmlns="http://www.w3.org/2000/svg" xmlns:xlink="http://www.w3.org/1999/xlink" width="100px" height="100px" viewBox="0 0 100 100" version="1.1">
<defs>
<clipPath id="clip1">
  <path d="M 39 16.082031 L 57.601562 16.082031 L 57.601562 33.601562 L 39 33.601562 Z M 39 16.082031 "/>
</clipPath>
<clipPath id="clip2">
  <path d="M 52 22.398438 L 68.53125 22.398438 L 68.53125 38.667969 L 52 38.667969 Z M 52 22.398438 "/>
</clipPath>
<clipPath id="clip3">
  <path d="M 52 39.464844 L 68.53125 39.464844 L 68.53125 55.734375 L 52 55.734375 Z M 52 39.464844 "/>
</clipPath>
<clipPath id="clip4">
  <path d="M 39 44.535156 L 57.601562 44.535156 L 57.601562 62.082031 L 39 62.082031 Z M 39 44.535156 "/>
</clipPath>
<clipPath id="clip5">
  <path d="M 27.929688 39.464844 L 44.535156 39.464844 L 44.535156 55.734375 L 27.929688 55.734375 Z M 27.929688 39.464844 "/>
</clipPath>
<clipPath id="clip6">
  <path d="M 27.929688 22.398438 L 44.535156 22.398438 L 44.535156 38.667969 L 27.929688 38.667969 Z M 27.929688 22.398438 "/>
</clipPath>
</defs>
<g id="surface1">
<g clip-path="url(#clip1)" clip-rule="nonzero">
<path style=" stroke:none;fill-rule:evenodd;fill:rgb(1.176471%,48.627451%,74.117647%);fill-opacity:1;" d="M 39.042969 22.117188 C 43.878906 24.429688 46.339844 28.246094 46.304688 33.589844 C 46.773438 31.574219 47.355469 29.621094 48.222656 27.851562 C 49.105469 29.621094 49.6875 31.574219 50.160156 33.589844 C 50.121094 28.246094 52.585938 24.429688 57.417969 22.117188 C 54.691406 21.757812 52.074219 21.554688 49.460938 21.515625 C 50.421875 21.042969 51.078125 20.066406 51.078125 18.9375 C 51.078125 17.359375 49.800781 16.082031 48.222656 16.082031 C 46.660156 16.082031 45.382812 17.359375 45.382812 18.9375 C 45.382812 20.066406 46.039062 21.042969 46.980469 21.515625 C 44.386719 21.554688 41.769531 21.757812 39.042969 22.117188 Z M 39.042969 22.117188 "/>
</g>
<g clip-path="url(#clip2)" clip-rule="nonzero">
<path style=" stroke:none;fill-rule:evenodd;fill:rgb(0.784314%,61.960784%,15.294118%);fill-opacity:1;" d="M 58.320312 22.644531 C 58.734375 27.984375 56.664062 32.007812 52.019531 34.660156 C 54.011719 34.058594 55.988281 33.589844 57.945312 33.476562 C 56.871094 35.113281 55.460938 36.578125 53.9375 38.007812 C 58.5625 35.300781 63.078125 35.523438 67.515625 38.554688 C 66.460938 36.015625 65.316406 33.644531 64.074219 31.371094 C 64.9375 31.972656 66.125 32.046875 67.101562 31.480469 C 68.472656 30.691406 68.925781 28.945312 68.152344 27.570312 C 67.363281 26.214844 65.617188 25.746094 64.242188 26.535156 C 63.265625 27.101562 62.738281 28.152344 62.832031 29.226562 C 61.480469 26.988281 59.992188 24.824219 58.320312 22.644531 Z M 58.320312 22.644531 "/>
</g>
<g clip-path="url(#clip3)" clip-rule="nonzero">
<path style=" stroke:none;fill-rule:evenodd;fill:rgb(98.823529%,67.843137%,7.843137%);fill-opacity:1;" d="M 67.515625 39.605469 C 63.078125 42.632812 58.5625 42.859375 53.9375 40.152344 C 55.460938 41.5625 56.871094 43.046875 57.945312 44.683594 C 55.988281 44.570312 54.011719 44.101562 52.019531 43.5 C 56.664062 46.152344 58.734375 50.15625 58.320312 55.515625 C 59.992188 53.335938 61.480469 51.171875 62.832031 48.933594 C 62.738281 49.988281 63.265625 51.058594 64.242188 51.621094 C 65.617188 52.414062 67.363281 51.941406 68.152344 50.570312 C 68.925781 49.214844 68.472656 47.464844 67.101562 46.675781 C 66.125 46.113281 64.9375 46.1875 64.074219 46.789062 C 65.316406 44.515625 66.460938 42.144531 67.515625 39.605469 Z M 67.515625 39.605469 "/>
</g>
<g clip-path="url(#clip4)" clip-rule="nonzero">
<path style=" stroke:none;fill-rule:evenodd;fill:rgb(100%,34.117647%,7.45098%);fill-opacity:1;" d="M 39.042969 56.042969 C 43.878906 53.730469 46.339844 49.910156 46.304688 44.550781 C 46.773438 46.582031 47.355469 48.539062 48.222656 50.308594 C 49.105469 48.539062 49.6875 46.582031 50.160156 44.550781 C 50.121094 49.910156 52.585938 53.730469 57.417969 56.042969 C 54.691406 56.398438 52.074219 56.605469 49.460938 56.644531 C 50.421875 57.113281 51.078125 58.09375 51.078125 59.222656 C 51.078125 60.800781 49.800781 62.078125 48.222656 62.078125 C 46.660156 62.078125 45.382812 60.800781 45.382812 59.222656 C 45.382812 58.09375 46.039062 57.113281 46.980469 56.644531 C 44.386719 56.605469 41.769531 56.398438 39.042969 56.042969 Z M 39.042969 56.042969 "/>
</g>
<g clip-path="url(#clip5)" clip-rule="nonzero">
<path style=" stroke:none;fill-rule:evenodd;fill:rgb(90.980392%,2.745098%,32.54902%);fill-opacity:1;" d="M 28.945312 39.605469 C 33.367188 42.632812 37.898438 42.859375 42.523438 40.152344 C 41 41.5625 39.589844 43.046875 38.519531 44.683594 C 40.472656 44.570312 42.449219 44.101562 44.441406 43.5 C 39.796875 46.152344 37.726562 50.15625 38.140625 55.515625 C 36.46875 53.335938 34.980469 51.171875 33.628906 48.933594 C 33.703125 49.988281 33.195312 51.058594 32.21875 51.621094 C 30.847656 52.414062 29.097656 51.941406 28.304688 50.570312 C 27.515625 49.214844 27.988281 47.464844 29.359375 46.675781 C 30.335938 46.113281 31.523438 46.1875 32.386719 46.789062 C 31.128906 44.515625 30 42.144531 28.945312 39.605469 Z M 28.945312 39.605469 "/>
</g>
<g clip-path="url(#clip6)" clip-rule="nonzero">
<path style=" stroke:none;fill-rule:evenodd;fill:rgb(34.509804%,31.372549%,63.137255%);fill-opacity:1;" d="M 38.140625 22.644531 C 37.726562 27.984375 39.796875 32.007812 44.441406 34.660156 C 42.449219 34.058594 40.472656 33.589844 38.519531 33.476562 C 39.589844 35.113281 41 36.578125 42.523438 38.007812 C 37.898438 35.300781 33.367188 35.523438 28.945312 38.554688 C 30 36.015625 31.128906 33.644531 32.386719 31.371094 C 31.523438 31.972656 30.335938 32.046875 29.359375 31.480469 C 27.988281 30.691406 27.515625 28.945312 28.304688 27.570312 C 29.097656 26.214844 30.847656 25.746094 32.21875 26.535156 C 33.195312 27.101562 33.703125 28.152344 33.628906 29.226562 C 34.980469 26.988281 36.46875 24.824219 38.140625 22.644531 Z M 38.140625 22.644531 "/>
</g>
<path style=" stroke:none;fill-rule:nonzero;fill:rgb(0.392157%,6.27451%,14.117647%);fill-opacity:1;" d="M 33.367188 64.277344 C 33.742188 64.277344 34.074219 64.363281 34.367188 64.535156 C 34.660156 64.707031 34.886719 64.945312 35.050781 65.246094 C 35.214844 65.546875 35.296875 65.882812 35.296875 66.257812 L 35.296875 66.375 C 35.296875 66.75 35.214844 67.085938 35.050781 67.390625 C 34.886719 67.699219 34.660156 67.9375 34.367188 68.109375 C 34.074219 68.28125 33.742188 68.367188 33.367188 68.367188 L 31.917969 68.367188 L 31.917969 70.316406 L 29.976562 70.316406 L 29.976562 64.277344 Z M 31.917969 66.953125 L 32.71875 66.953125 C 32.917969 66.953125 33.074219 66.902344 33.175781 66.796875 C 33.277344 66.691406 33.328125 66.546875 33.328125 66.363281 L 33.328125 66.296875 C 33.328125 66.109375 33.277344 65.960938 33.175781 65.859375 C 33.074219 65.757812 32.917969 65.703125 32.71875 65.703125 L 31.917969 65.703125 Z M 31.917969 66.953125 "/>
<path style=" stroke:none;fill-rule:nonzero;fill:rgb(0.392157%,6.27451%,14.117647%);fill-opacity:1;" d="M 39.757812 64.167969 C 40.652344 64.167969 41.363281 64.390625 41.882812 64.84375 C 42.402344 65.289062 42.664062 65.929688 42.664062 66.757812 L 40.8125 66.757812 C 40.8125 66.410156 40.71875 66.132812 40.535156 65.925781 C 40.351562 65.71875 40.089844 65.617188 39.75 65.617188 C 39.355469 65.617188 39.066406 65.742188 38.882812 65.988281 C 38.699219 66.234375 38.605469 66.574219 38.605469 67.011719 L 38.605469 67.574219 C 38.605469 68.007812 38.699219 68.351562 38.882812 68.601562 C 39.066406 68.847656 39.351562 68.972656 39.730469 68.972656 C 40.105469 68.972656 40.390625 68.875 40.582031 68.683594 C 40.777344 68.492188 40.875 68.21875 40.875 67.867188 L 42.664062 67.867188 C 42.664062 68.691406 42.410156 69.324219 41.902344 69.761719 C 41.398438 70.203125 40.683594 70.421875 39.757812 70.421875 C 38.726562 70.421875 37.945312 70.160156 37.414062 69.632812 C 36.886719 69.105469 36.625 68.328125 36.625 67.296875 C 36.625 66.265625 36.886719 65.488281 37.414062 64.960938 C 37.945312 64.433594 38.726562 64.167969 39.757812 64.167969 Z M 39.757812 64.167969 "/>
<path style=" stroke:none;fill-rule:nonzero;fill:rgb(0.392157%,6.27451%,14.117647%);fill-opacity:1;" d="M 50.007812 66.125 C 50.007812 66.496094 49.910156 66.828125 49.710938 67.128906 C 49.507812 67.429688 49.21875 67.648438 48.839844 67.789062 L 50.183594 70.316406 L 48.003906 70.316406 L 46.933594 68.113281 L 46.214844 68.113281 L 46.214844 70.316406 L 44.273438 70.316406 L 44.273438 64.277344 L 47.96875 64.277344 C 48.402344 64.277344 48.773438 64.359375 49.082031 64.527344 C 49.390625 64.691406 49.621094 64.917969 49.777344 65.199219 C 49.929688 65.484375 50.007812 65.792969 50.007812 66.125 Z M 48.03125 66.203125 C 48.03125 66.050781 47.976562 65.917969 47.871094 65.8125 C 47.765625 65.707031 47.640625 65.65625 47.488281 65.65625 L 46.214844 65.65625 L 46.214844 66.765625 L 47.488281 66.765625 C 47.640625 66.765625 47.765625 66.714844 47.871094 66.605469 C 47.976562 66.496094 48.03125 66.363281 48.03125 66.203125 Z M 48.03125 66.203125 "/>
<path style=" stroke:none;fill-rule:nonzero;fill:rgb(0.392157%,6.27451%,14.117647%);fill-opacity:1;" d="M 56.207031 70.316406 L 55.425781 66.636719 L 55.390625 66.636719 L 54.609375 70.316406 L 52.472656 70.316406 L 51.0625 64.277344 L 53.078125 64.277344 L 53.773438 67.699219 L 53.808594 67.699219 L 54.496094 64.277344 L 56.40625 64.277344 L 57.136719 67.699219 L 57.175781 67.699219 L 57.824219 64.277344 L 59.753906 64.277344 L 58.339844 70.316406 Z M 56.207031 70.316406 "/>
<path style=" stroke:none;fill-rule:nonzero;fill:rgb(0.392157%,6.27451%,14.117647%);fill-opacity:1;" d="M 65.058594 70.316406 L 64.804688 69.46875 L 62.6875 69.46875 L 62.429688 70.316406 L 60.445312 70.316406 L 62.652344 64.277344 L 64.910156 64.277344 L 67.113281 70.316406 Z M 63.09375 68.113281 L 64.402344 68.113281 L 63.769531 65.960938 L 63.730469 65.960938 Z M 63.09375 68.113281 "/>
<path style=" stroke:none;fill-rule:nonzero;fill:rgb(0.392157%,6.27451%,14.117647%);fill-opacity:1;" d="M 30.753906 72.21875 C 30.753906 72.429688 30.683594 72.589844 30.542969 72.699219 C 30.402344 72.8125 30.199219 72.867188 29.9375 72.867188 L 29.695312 72.867188 L 29.695312 73.671875 L 29.457031 73.671875 L 29.457031 71.628906 L 29.992188 71.628906 C 30.5 71.628906 30.753906 71.828125 30.753906 72.21875 Z M 29.695312 72.660156 L 29.910156 72.660156 C 30.121094 72.660156 30.273438 72.628906 30.367188 72.5625 C 30.460938 72.492188 30.507812 72.382812 30.507812 72.234375 C 30.507812 72.097656 30.464844 72 30.375 71.933594 C 30.289062 71.867188 30.152344 71.832031 29.960938 71.832031 L 29.695312 71.832031 Z M 29.695312 72.660156 "/>
<path style=" stroke:none;fill-rule:nonzero;fill:rgb(0.392157%,6.27451%,14.117647%);fill-opacity:1;" d="M 32.957031 72.644531 C 32.957031 72.972656 32.875 73.230469 32.707031 73.421875 C 32.542969 73.605469 32.3125 73.699219 32.019531 73.699219 C 31.71875 73.699219 31.488281 73.609375 31.324219 73.425781 C 31.160156 73.238281 31.078125 72.976562 31.078125 72.640625 C 31.078125 72.3125 31.160156 72.054688 31.324219 71.871094 C 31.488281 71.6875 31.722656 71.59375 32.023438 71.59375 C 32.316406 71.59375 32.542969 71.6875 32.707031 71.875 C 32.875 72.0625 32.957031 72.316406 32.957031 72.644531 Z M 31.328125 72.644531 C 31.328125 72.921875 31.386719 73.132812 31.503906 73.277344 C 31.621094 73.421875 31.792969 73.492188 32.019531 73.492188 C 32.246094 73.492188 32.417969 73.421875 32.53125 73.277344 C 32.648438 73.132812 32.707031 72.921875 32.707031 72.644531 C 32.707031 72.371094 32.648438 72.160156 32.53125 72.019531 C 32.417969 71.878906 32.25 71.808594 32.023438 71.808594 C 31.796875 71.808594 31.621094 71.878906 31.503906 72.023438 C 31.386719 72.164062 31.328125 72.375 31.328125 72.644531 Z M 31.328125 72.644531 "/>
<path style=" stroke:none;fill-rule:nonzero;fill:rgb(0.392157%,6.27451%,14.117647%);fill-opacity:1;" d="M 34.566406 73.128906 C 34.566406 73.304688 34.5 73.445312 34.371094 73.550781 C 34.238281 73.648438 34.0625 73.699219 33.84375 73.699219 C 33.601562 73.699219 33.414062 73.667969 33.285156 73.601562 L 33.285156 73.375 C 33.367188 73.410156 33.457031 73.441406 33.554688 73.460938 C 33.65625 73.480469 33.753906 73.492188 33.851562 73.492188 C 34.007812 73.492188 34.125 73.460938 34.203125 73.398438 C 34.285156 73.339844 34.324219 73.253906 34.324219 73.148438 C 34.324219 73.078125 34.3125 73.019531 34.285156 72.972656 C 34.253906 72.929688 34.207031 72.890625 34.140625 72.847656 C 34.074219 72.8125 33.972656 72.769531 33.835938 72.71875 C 33.648438 72.652344 33.511719 72.570312 33.429688 72.476562 C 33.347656 72.382812 33.308594 72.261719 33.308594 72.113281 C 33.308594 71.957031 33.367188 71.832031 33.484375 71.742188 C 33.601562 71.648438 33.757812 71.597656 33.953125 71.597656 C 34.15625 71.597656 34.34375 71.636719 34.515625 71.707031 L 34.441406 71.914062 C 34.273438 71.847656 34.109375 71.8125 33.949219 71.8125 C 33.824219 71.8125 33.726562 71.839844 33.65625 71.890625 C 33.585938 71.945312 33.550781 72.019531 33.550781 72.117188 C 33.550781 72.1875 33.5625 72.242188 33.585938 72.289062 C 33.613281 72.335938 33.65625 72.378906 33.71875 72.414062 C 33.78125 72.453125 33.875 72.492188 34.003906 72.539062 C 34.21875 72.617188 34.363281 72.699219 34.445312 72.785156 C 34.527344 72.875 34.566406 72.988281 34.566406 73.128906 Z M 34.566406 73.128906 "/>
<path style=" stroke:none;fill-rule:nonzero;fill:rgb(0.392157%,6.27451%,14.117647%);fill-opacity:1;" d="M 35.613281 73.671875 L 35.375 73.671875 L 35.375 71.835938 L 34.730469 71.835938 L 34.730469 71.628906 L 36.261719 71.628906 L 36.261719 71.835938 L 35.613281 71.835938 Z M 35.613281 73.671875 "/>
<path style=" stroke:none;fill-rule:nonzero;fill:rgb(0.392157%,6.27451%,14.117647%);fill-opacity:1;" d="M 37.855469 73.671875 L 37.601562 73.019531 L 36.78125 73.019531 L 36.53125 73.671875 L 36.289062 73.671875 L 37.097656 71.621094 L 37.296875 71.621094 L 38.101562 73.671875 Z M 37.527344 72.808594 L 37.289062 72.175781 C 37.257812 72.09375 37.226562 71.996094 37.195312 71.878906 C 37.175781 71.96875 37.144531 72.066406 37.105469 72.175781 L 36.863281 72.808594 Z M 37.527344 72.808594 "/>
<path style=" stroke:none;fill-rule:nonzero;fill:rgb(0.392157%,6.27451%,14.117647%);fill-opacity:1;" d="M 38.382812 73.671875 L 38.382812 71.628906 L 38.617188 71.628906 L 38.617188 73.453125 L 39.523438 73.453125 L 39.523438 73.671875 Z M 38.382812 73.671875 "/>
<path style=" stroke:none;fill-rule:nonzero;fill:rgb(0.392157%,6.27451%,14.117647%);fill-opacity:1;" d="M 41.488281 71.8125 C 41.265625 71.8125 41.085938 71.886719 40.957031 72.035156 C 40.828125 72.183594 40.761719 72.390625 40.761719 72.648438 C 40.761719 72.914062 40.824219 73.125 40.949219 73.269531 C 41.074219 73.414062 41.253906 73.488281 41.488281 73.488281 C 41.628906 73.488281 41.789062 73.460938 41.972656 73.410156 L 41.972656 73.621094 C 41.832031 73.671875 41.65625 73.699219 41.449219 73.699219 C 41.148438 73.699219 40.917969 73.609375 40.753906 73.425781 C 40.589844 73.242188 40.507812 72.980469 40.507812 72.644531 C 40.507812 72.433594 40.546875 72.25 40.625 72.089844 C 40.703125 71.933594 40.816406 71.8125 40.964844 71.726562 C 41.117188 71.644531 41.289062 71.597656 41.492188 71.597656 C 41.703125 71.597656 41.890625 71.640625 42.054688 71.714844 L 41.953125 71.921875 C 41.796875 71.847656 41.640625 71.8125 41.488281 71.8125 Z M 41.488281 71.8125 "/>
<path style=" stroke:none;fill-rule:nonzero;fill:rgb(0.392157%,6.27451%,14.117647%);fill-opacity:1;" d="M 44.195312 72.644531 C 44.195312 72.972656 44.109375 73.230469 43.945312 73.421875 C 43.777344 73.605469 43.550781 73.699219 43.257812 73.699219 C 42.957031 73.699219 42.722656 73.609375 42.558594 73.425781 C 42.394531 73.238281 42.3125 72.976562 42.3125 72.640625 C 42.3125 72.3125 42.394531 72.054688 42.558594 71.871094 C 42.722656 71.6875 42.957031 71.59375 43.261719 71.59375 C 43.550781 71.59375 43.777344 71.6875 43.945312 71.875 C 44.109375 72.0625 44.195312 72.316406 44.195312 72.644531 Z M 42.5625 72.644531 C 42.5625 72.921875 42.621094 73.132812 42.738281 73.277344 C 42.859375 73.421875 43.03125 73.492188 43.257812 73.492188 C 43.484375 73.492188 43.652344 73.421875 43.769531 73.277344 C 43.886719 73.132812 43.945312 72.921875 43.945312 72.644531 C 43.945312 72.371094 43.886719 72.160156 43.769531 72.019531 C 43.652344 71.878906 43.484375 71.808594 43.261719 71.808594 C 43.03125 71.808594 42.859375 71.878906 42.738281 72.023438 C 42.621094 72.164062 42.5625 72.375 42.5625 72.644531 Z M 42.5625 72.644531 "/>
<path style=" stroke:none;fill-rule:nonzero;fill:rgb(0.392157%,6.27451%,14.117647%);fill-opacity:1;" d="M 44.648438 73.671875 L 44.648438 71.628906 L 44.886719 71.628906 L 44.886719 73.453125 L 45.789062 73.453125 L 45.789062 73.671875 Z M 44.648438 73.671875 "/>
<path style=" stroke:none;fill-rule:nonzero;fill:rgb(0.392157%,6.27451%,14.117647%);fill-opacity:1;" d="M 47.910156 72.644531 C 47.910156 72.972656 47.828125 73.230469 47.660156 73.421875 C 47.496094 73.605469 47.265625 73.699219 46.972656 73.699219 C 46.671875 73.699219 46.441406 73.609375 46.277344 73.425781 C 46.113281 73.238281 46.03125 72.976562 46.03125 72.640625 C 46.03125 72.3125 46.113281 72.054688 46.277344 71.871094 C 46.441406 71.6875 46.675781 71.59375 46.976562 71.59375 C 47.269531 71.59375 47.496094 71.6875 47.660156 71.875 C 47.828125 72.0625 47.910156 72.316406 47.910156 72.644531 Z M 46.28125 72.644531 C 46.28125 72.921875 46.339844 73.132812 46.457031 73.277344 C 46.574219 73.421875 46.746094 73.492188 46.972656 73.492188 C 47.199219 73.492188 47.371094 73.421875 47.484375 73.277344 C 47.601562 73.132812 47.660156 72.921875 47.660156 72.644531 C 47.660156 72.371094 47.601562 72.160156 47.484375 72.019531 C 47.371094 71.878906 47.203125 71.808594 46.976562 71.808594 C 46.75 71.808594 46.574219 71.878906 46.457031 72.023438 C 46.339844 72.164062 46.28125 72.375 46.28125 72.644531 Z M 46.28125 72.644531 "/>
<path style=" stroke:none;fill-rule:nonzero;fill:rgb(0.392157%,6.27451%,14.117647%);fill-opacity:1;" d="M 49.964844 73.671875 L 49.691406 73.671875 L 48.574219 71.953125 L 48.566406 71.953125 C 48.578125 72.15625 48.585938 72.339844 48.585938 72.507812 L 48.585938 73.671875 L 48.367188 73.671875 L 48.367188 71.628906 L 48.636719 71.628906 L 49.75 73.332031 L 49.761719 73.332031 C 49.757812 73.308594 49.753906 73.226562 49.75 73.089844 C 49.742188 72.957031 49.742188 72.859375 49.742188 72.800781 L 49.742188 71.628906 L 49.964844 71.628906 Z M 49.964844 73.671875 "/>
<path style=" stroke:none;fill-rule:nonzero;fill:rgb(0.392157%,6.27451%,14.117647%);fill-opacity:1;" d="M 51.046875 72.648438 L 51.589844 71.628906 L 51.851562 71.628906 L 51.167969 72.878906 L 51.167969 73.671875 L 50.925781 73.671875 L 50.925781 72.886719 L 50.246094 71.628906 L 50.503906 71.628906 Z M 51.046875 72.648438 "/>
<path style=" stroke:none;fill-rule:nonzero;fill:rgb(0.392157%,6.27451%,14.117647%);fill-opacity:1;" d="M 53.109375 72.820312 L 53.109375 73.671875 L 52.875 73.671875 L 52.875 71.628906 L 53.4375 71.628906 C 53.6875 71.628906 53.871094 71.675781 53.988281 71.773438 C 54.109375 71.867188 54.167969 72.011719 54.167969 72.203125 C 54.167969 72.472656 54.03125 72.65625 53.761719 72.753906 L 54.316406 73.671875 L 54.035156 73.671875 L 53.539062 72.820312 Z M 53.109375 72.617188 L 53.441406 72.617188 C 53.605469 72.617188 53.726562 72.582031 53.804688 72.515625 C 53.882812 72.449219 53.921875 72.347656 53.921875 72.214844 C 53.921875 72.082031 53.882812 71.984375 53.800781 71.925781 C 53.722656 71.867188 53.597656 71.835938 53.421875 71.835938 L 53.109375 71.835938 Z M 53.109375 72.617188 "/>
<path style=" stroke:none;fill-rule:nonzero;fill:rgb(0.392157%,6.27451%,14.117647%);fill-opacity:1;" d="M 55.785156 73.671875 L 54.644531 73.671875 L 54.644531 71.628906 L 55.785156 71.628906 L 55.785156 71.835938 L 54.882812 71.835938 L 54.882812 72.496094 L 55.730469 72.496094 L 55.730469 72.707031 L 54.882812 72.707031 L 54.882812 73.457031 L 55.785156 73.457031 Z M 55.785156 73.671875 "/>
<path style=" stroke:none;fill-rule:nonzero;fill:rgb(0.392157%,6.27451%,14.117647%);fill-opacity:1;" d="M 57.390625 73.128906 C 57.390625 73.304688 57.324219 73.445312 57.195312 73.550781 C 57.0625 73.648438 56.886719 73.699219 56.664062 73.699219 C 56.421875 73.699219 56.238281 73.667969 56.105469 73.601562 L 56.105469 73.375 C 56.191406 73.410156 56.28125 73.441406 56.378906 73.460938 C 56.476562 73.480469 56.574219 73.492188 56.671875 73.492188 C 56.832031 73.492188 56.949219 73.460938 57.027344 73.398438 C 57.109375 73.339844 57.148438 73.253906 57.148438 73.148438 C 57.148438 73.078125 57.132812 73.019531 57.105469 72.972656 C 57.078125 72.929688 57.03125 72.890625 56.964844 72.847656 C 56.898438 72.8125 56.796875 72.769531 56.660156 72.71875 C 56.472656 72.652344 56.335938 72.570312 56.253906 72.476562 C 56.171875 72.382812 56.132812 72.261719 56.132812 72.113281 C 56.132812 71.957031 56.191406 71.832031 56.308594 71.742188 C 56.425781 71.648438 56.582031 71.597656 56.777344 71.597656 C 56.980469 71.597656 57.167969 71.636719 57.339844 71.707031 L 57.265625 71.914062 C 57.09375 71.847656 56.933594 71.8125 56.773438 71.8125 C 56.648438 71.8125 56.550781 71.839844 56.476562 71.890625 C 56.40625 71.945312 56.375 72.019531 56.375 72.117188 C 56.375 72.1875 56.386719 72.242188 56.410156 72.289062 C 56.4375 72.335938 56.480469 72.378906 56.539062 72.414062 C 56.605469 72.453125 56.699219 72.492188 56.828125 72.539062 C 57.042969 72.617188 57.1875 72.699219 57.269531 72.785156 C 57.351562 72.875 57.390625 72.988281 57.390625 73.128906 Z M 57.390625 73.128906 "/>
<path style=" stroke:none;fill-rule:nonzero;fill:rgb(0.392157%,6.27451%,14.117647%);fill-opacity:1;" d="M 57.808594 73.671875 L 57.808594 71.628906 L 58.046875 71.628906 L 58.046875 73.671875 Z M 57.808594 73.671875 "/>
<path style=" stroke:none;fill-rule:nonzero;fill:rgb(0.392157%,6.27451%,14.117647%);fill-opacity:1;" d="M 60.238281 72.628906 C 60.238281 72.96875 60.148438 73.226562 59.964844 73.402344 C 59.78125 73.582031 59.515625 73.671875 59.171875 73.671875 L 58.605469 73.671875 L 58.605469 71.628906 L 59.234375 71.628906 C 59.550781 71.628906 59.796875 71.714844 59.972656 71.890625 C 60.148438 72.066406 60.238281 72.3125 60.238281 72.628906 Z M 59.988281 72.636719 C 59.988281 72.371094 59.921875 72.171875 59.785156 72.035156 C 59.652344 71.902344 59.453125 71.832031 59.191406 71.832031 L 58.84375 71.832031 L 58.84375 73.464844 L 59.136719 73.464844 C 59.417969 73.464844 59.632812 73.398438 59.773438 73.257812 C 59.917969 73.117188 59.988281 72.910156 59.988281 72.636719 Z M 59.988281 72.636719 "/>
<path style=" stroke:none;fill-rule:nonzero;fill:rgb(0.392157%,6.27451%,14.117647%);fill-opacity:1;" d="M 61.835938 73.671875 L 60.695312 73.671875 L 60.695312 71.628906 L 61.835938 71.628906 L 61.835938 71.835938 L 60.933594 71.835938 L 60.933594 72.496094 L 61.78125 72.496094 L 61.78125 72.707031 L 60.933594 72.707031 L 60.933594 73.457031 L 61.835938 73.457031 Z M 61.835938 73.671875 "/>
<path style=" stroke:none;fill-rule:nonzero;fill:rgb(0.392157%,6.27451%,14.117647%);fill-opacity:1;" d="M 63.886719 73.671875 L 63.613281 73.671875 L 62.496094 71.953125 L 62.488281 71.953125 C 62.5 72.15625 62.507812 72.339844 62.507812 72.507812 L 62.507812 73.671875 L 62.289062 73.671875 L 62.289062 71.628906 L 62.558594 71.628906 L 63.671875 73.332031 L 63.683594 73.332031 C 63.679688 73.308594 63.675781 73.226562 63.671875 73.089844 C 63.664062 72.957031 63.664062 72.859375 63.664062 72.800781 L 63.664062 71.628906 L 63.886719 71.628906 Z M 63.886719 73.671875 "/>
<path style=" stroke:none;fill-rule:nonzero;fill:rgb(0.392157%,6.27451%,14.117647%);fill-opacity:1;" d="M 65.074219 73.671875 L 64.839844 73.671875 L 64.839844 71.835938 L 64.191406 71.835938 L 64.191406 71.628906 L 65.726562 71.628906 L 65.726562 71.835938 L 65.074219 71.835938 Z M 65.074219 73.671875 "/>
<path style=" stroke:none;fill-rule:nonzero;fill:rgb(0.392157%,6.27451%,14.117647%);fill-opacity:1;" d="M 67.183594 73.128906 C 67.183594 73.304688 67.121094 73.445312 66.988281 73.550781 C 66.859375 73.648438 66.683594 73.699219 66.460938 73.699219 C 66.21875 73.699219 66.03125 73.667969 65.902344 73.601562 L 65.902344 73.375 C 65.984375 73.410156 66.074219 73.441406 66.171875 73.460938 C 66.273438 73.480469 66.371094 73.492188 66.46875 73.492188 C 66.625 73.492188 66.746094 73.460938 66.824219 73.398438 C 66.902344 73.339844 66.941406 73.253906 66.941406 73.148438 C 66.941406 73.078125 66.929688 73.019531 66.902344 72.972656 C 66.875 72.929688 66.828125 72.890625 66.761719 72.847656 C 66.691406 72.8125 66.589844 72.769531 66.457031 72.71875 C 66.265625 72.652344 66.128906 72.570312 66.046875 72.476562 C 65.964844 72.382812 65.925781 72.261719 65.925781 72.113281 C 65.925781 71.957031 65.984375 71.832031 66.101562 71.742188 C 66.21875 71.648438 66.378906 71.597656 66.574219 71.597656 C 66.773438 71.597656 66.960938 71.636719 67.136719 71.707031 L 67.058594 71.914062 C 66.890625 71.847656 66.726562 71.8125 66.566406 71.8125 C 66.441406 71.8125 66.34375 71.839844 66.273438 71.890625 C 66.203125 71.945312 66.167969 72.019531 66.167969 72.117188 C 66.167969 72.1875 66.179688 72.242188 66.207031 72.289062 C 66.230469 72.335938 66.273438 72.378906 66.335938 72.414062 C 66.398438 72.453125 66.496094 72.492188 66.621094 72.539062 C 66.835938 72.617188 66.984375 72.699219 67.0625 72.785156 C 67.144531 72.875 67.183594 72.988281 67.183594 73.128906 Z M 67.183594 73.128906 "/>
<path style=" stroke:none;fill-rule:nonzero;fill:rgb(0.392157%,6.27451%,14.117647%);fill-opacity:1;" d="M 34.1875 77.671875 L 33.957031 77.671875 L 33.542969 76.308594 C 33.523438 76.246094 33.5 76.167969 33.476562 76.078125 C 33.453125 75.984375 33.441406 75.929688 33.4375 75.910156 C 33.417969 76.035156 33.386719 76.167969 33.34375 76.316406 L 32.941406 77.671875 L 32.710938 77.671875 L 32.164062 75.632812 L 32.414062 75.632812 L 32.738281 76.890625 C 32.78125 77.070312 32.816406 77.230469 32.835938 77.375 C 32.859375 77.203125 32.898438 77.035156 32.949219 76.875 L 33.3125 75.632812 L 33.566406 75.632812 L 33.953125 76.882812 C 33.996094 77.027344 34.03125 77.191406 34.0625 77.375 C 34.082031 77.242188 34.113281 77.078125 34.164062 76.890625 L 34.484375 75.632812 L 34.738281 75.632812 Z M 34.1875 77.671875 "/>
<path style=" stroke:none;fill-rule:nonzero;fill:rgb(0.392157%,6.27451%,14.117647%);fill-opacity:1;" d="M 36.199219 77.671875 L 35.058594 77.671875 L 35.058594 75.632812 L 36.199219 75.632812 L 36.199219 75.839844 L 35.292969 75.839844 L 35.292969 76.5 L 36.144531 76.5 L 36.144531 76.710938 L 35.292969 76.710938 L 35.292969 77.460938 L 36.199219 77.460938 Z M 36.199219 77.671875 "/>
<path style=" stroke:none;fill-rule:nonzero;fill:rgb(0.392157%,6.27451%,14.117647%);fill-opacity:1;" d="M 36.648438 77.671875 L 36.648438 75.632812 L 36.886719 75.632812 L 36.886719 77.457031 L 37.792969 77.457031 L 37.792969 77.671875 Z M 36.648438 77.671875 "/>
<path style=" stroke:none;fill-rule:nonzero;fill:rgb(0.392157%,6.27451%,14.117647%);fill-opacity:1;" d="M 38.375 77.671875 L 38.136719 77.671875 L 38.136719 75.632812 L 39.277344 75.632812 L 39.277344 75.839844 L 38.375 75.839844 L 38.375 76.589844 L 39.222656 76.589844 L 39.222656 76.796875 L 38.375 76.796875 Z M 38.375 77.671875 "/>
<path style=" stroke:none;fill-rule:nonzero;fill:rgb(0.392157%,6.27451%,14.117647%);fill-opacity:1;" d="M 40.902344 77.671875 L 40.648438 77.023438 L 39.828125 77.023438 L 39.578125 77.671875 L 39.335938 77.671875 L 40.144531 75.625 L 40.34375 75.625 L 41.148438 77.671875 Z M 40.574219 76.8125 L 40.335938 76.179688 C 40.304688 76.097656 40.273438 76 40.238281 75.882812 C 40.21875 75.972656 40.191406 76.070312 40.152344 76.179688 L 39.910156 76.8125 Z M 40.574219 76.8125 "/>
<path style=" stroke:none;fill-rule:nonzero;fill:rgb(0.392157%,6.27451%,14.117647%);fill-opacity:1;" d="M 41.664062 76.824219 L 41.664062 77.671875 L 41.425781 77.671875 L 41.425781 75.632812 L 41.988281 75.632812 C 42.238281 75.632812 42.425781 75.679688 42.542969 75.777344 C 42.664062 75.871094 42.722656 76.015625 42.722656 76.207031 C 42.722656 76.476562 42.585938 76.660156 42.316406 76.757812 L 42.867188 77.671875 L 42.589844 77.671875 L 42.09375 76.824219 Z M 41.664062 76.621094 L 41.992188 76.621094 C 42.160156 76.621094 42.28125 76.585938 42.359375 76.519531 C 42.4375 76.453125 42.476562 76.351562 42.476562 76.21875 C 42.476562 76.085938 42.4375 75.984375 42.355469 75.929688 C 42.277344 75.871094 42.152344 75.839844 41.976562 75.839844 L 41.664062 75.839844 Z M 41.664062 76.621094 "/>
<path style=" stroke:none;fill-rule:nonzero;fill:rgb(0.392157%,6.27451%,14.117647%);fill-opacity:1;" d="M 44.339844 77.671875 L 43.199219 77.671875 L 43.199219 75.632812 L 44.339844 75.632812 L 44.339844 75.839844 L 43.433594 75.839844 L 43.433594 76.5 L 44.285156 76.5 L 44.285156 76.710938 L 43.433594 76.710938 L 43.433594 77.460938 L 44.339844 77.460938 Z M 44.339844 77.671875 "/>
<path style=" stroke:none;fill-rule:nonzero;fill:rgb(0.392157%,6.27451%,14.117647%);fill-opacity:1;" d="M 46.820312 77.671875 L 46.566406 77.023438 L 45.746094 77.023438 L 45.496094 77.671875 L 45.253906 77.671875 L 46.0625 75.625 L 46.261719 75.625 L 47.066406 77.671875 Z M 46.492188 76.8125 L 46.253906 76.179688 C 46.222656 76.097656 46.191406 76 46.160156 75.882812 C 46.140625 75.972656 46.109375 76.070312 46.070312 76.179688 L 45.828125 76.8125 Z M 46.492188 76.8125 "/>
<path style=" stroke:none;fill-rule:nonzero;fill:rgb(0.392157%,6.27451%,14.117647%);fill-opacity:1;" d="M 48.5 77.132812 C 48.5 77.308594 48.433594 77.449219 48.304688 77.554688 C 48.171875 77.652344 47.996094 77.703125 47.777344 77.703125 C 47.535156 77.703125 47.347656 77.671875 47.21875 77.605469 L 47.21875 77.378906 C 47.300781 77.414062 47.390625 77.445312 47.488281 77.464844 C 47.589844 77.484375 47.6875 77.496094 47.785156 77.496094 C 47.941406 77.496094 48.058594 77.464844 48.136719 77.402344 C 48.21875 77.34375 48.257812 77.257812 48.257812 77.152344 C 48.257812 77.082031 48.246094 77.023438 48.21875 76.976562 C 48.1875 76.933594 48.140625 76.890625 48.074219 76.851562 C 48.007812 76.8125 47.90625 76.773438 47.773438 76.722656 C 47.582031 76.65625 47.445312 76.574219 47.363281 76.480469 C 47.28125 76.386719 47.242188 76.265625 47.242188 76.117188 C 47.242188 75.960938 47.300781 75.835938 47.417969 75.746094 C 47.535156 75.652344 47.695312 75.601562 47.886719 75.601562 C 48.089844 75.601562 48.277344 75.640625 48.449219 75.710938 L 48.375 75.917969 C 48.207031 75.851562 48.042969 75.816406 47.882812 75.816406 C 47.757812 75.816406 47.660156 75.84375 47.589844 75.894531 C 47.519531 75.949219 47.484375 76.023438 47.484375 76.121094 C 47.484375 76.1875 47.496094 76.246094 47.523438 76.292969 C 47.546875 76.339844 47.589844 76.382812 47.652344 76.417969 C 47.714844 76.457031 47.808594 76.496094 47.9375 76.542969 C 48.152344 76.621094 48.296875 76.703125 48.378906 76.789062 C 48.460938 76.875 48.5 76.992188 48.5 77.132812 Z M 48.5 77.132812 "/>
<path style=" stroke:none;fill-rule:nonzero;fill:rgb(0.392157%,6.27451%,14.117647%);fill-opacity:1;" d="M 50.074219 77.132812 C 50.074219 77.308594 50.007812 77.449219 49.875 77.554688 C 49.746094 77.652344 49.570312 77.703125 49.347656 77.703125 C 49.105469 77.703125 48.917969 77.671875 48.789062 77.605469 L 48.789062 77.378906 C 48.871094 77.414062 48.960938 77.445312 49.058594 77.464844 C 49.160156 77.484375 49.257812 77.496094 49.355469 77.496094 C 49.515625 77.496094 49.632812 77.464844 49.710938 77.402344 C 49.789062 77.34375 49.832031 77.257812 49.832031 77.152344 C 49.832031 77.082031 49.816406 77.023438 49.789062 76.976562 C 49.761719 76.933594 49.714844 76.890625 49.648438 76.851562 C 49.582031 76.8125 49.480469 76.773438 49.34375 76.722656 C 49.152344 76.65625 49.019531 76.574219 48.933594 76.480469 C 48.855469 76.386719 48.8125 76.265625 48.8125 76.117188 C 48.8125 75.960938 48.871094 75.835938 48.988281 75.746094 C 49.109375 75.652344 49.265625 75.601562 49.460938 75.601562 C 49.660156 75.601562 49.847656 75.640625 50.023438 75.710938 L 49.949219 75.917969 C 49.777344 75.851562 49.613281 75.816406 49.457031 75.816406 C 49.332031 75.816406 49.230469 75.84375 49.160156 75.894531 C 49.089844 75.949219 49.054688 76.023438 49.054688 76.121094 C 49.054688 76.1875 49.066406 76.246094 49.09375 76.292969 C 49.117188 76.339844 49.160156 76.382812 49.222656 76.417969 C 49.285156 76.457031 49.382812 76.496094 49.511719 76.542969 C 49.722656 76.621094 49.871094 76.703125 49.953125 76.789062 C 50.03125 76.875 50.074219 76.992188 50.074219 77.132812 Z M 50.074219 77.132812 "/>
<path style=" stroke:none;fill-rule:nonzero;fill:rgb(0.392157%,6.27451%,14.117647%);fill-opacity:1;" d="M 52.265625 76.648438 C 52.265625 76.976562 52.183594 77.234375 52.015625 77.421875 C 51.851562 77.609375 51.621094 77.703125 51.328125 77.703125 C 51.027344 77.703125 50.796875 77.609375 50.632812 77.429688 C 50.46875 77.242188 50.386719 76.980469 50.386719 76.644531 C 50.386719 76.3125 50.46875 76.058594 50.632812 75.875 C 50.796875 75.691406 51.027344 75.597656 51.332031 75.597656 C 51.625 75.597656 51.851562 75.691406 52.015625 75.878906 C 52.183594 76.0625 52.265625 76.320312 52.265625 76.648438 Z M 50.636719 76.648438 C 50.636719 76.925781 50.695312 77.136719 50.8125 77.28125 C 50.929688 77.421875 51.101562 77.496094 51.328125 77.496094 C 51.554688 77.496094 51.726562 77.421875 51.839844 77.28125 C 51.957031 77.136719 52.015625 76.925781 52.015625 76.648438 C 52.015625 76.375 51.957031 76.164062 51.839844 76.023438 C 51.726562 75.882812 51.558594 75.8125 51.332031 75.8125 C 51.105469 75.8125 50.929688 75.882812 50.8125 76.027344 C 50.695312 76.167969 50.636719 76.375 50.636719 76.648438 Z M 50.636719 76.648438 "/>
<path style=" stroke:none;fill-rule:nonzero;fill:rgb(0.392157%,6.27451%,14.117647%);fill-opacity:1;" d="M 53.59375 75.816406 C 53.371094 75.816406 53.195312 75.890625 53.066406 76.039062 C 52.933594 76.1875 52.871094 76.390625 52.871094 76.652344 C 52.871094 76.917969 52.933594 77.125 53.058594 77.273438 C 53.183594 77.417969 53.363281 77.492188 53.59375 77.492188 C 53.738281 77.492188 53.898438 77.464844 54.082031 77.414062 L 54.082031 77.625 C 53.941406 77.675781 53.765625 77.703125 53.558594 77.703125 C 53.257812 77.703125 53.027344 77.609375 52.863281 77.429688 C 52.699219 77.246094 52.617188 76.984375 52.617188 76.648438 C 52.617188 76.4375 52.65625 76.253906 52.734375 76.09375 C 52.8125 75.9375 52.925781 75.816406 53.074219 75.730469 C 53.226562 75.648438 53.398438 75.601562 53.601562 75.601562 C 53.8125 75.601562 54 75.640625 54.164062 75.71875 L 54.0625 75.921875 C 53.90625 75.851562 53.75 75.816406 53.59375 75.816406 Z M 53.59375 75.816406 "/>
<path style=" stroke:none;fill-rule:nonzero;fill:rgb(0.392157%,6.27451%,14.117647%);fill-opacity:1;" d="M 54.527344 77.671875 L 54.527344 75.632812 L 54.765625 75.632812 L 54.765625 77.671875 Z M 54.527344 77.671875 "/>
<path style=" stroke:none;fill-rule:nonzero;fill:rgb(0.392157%,6.27451%,14.117647%);fill-opacity:1;" d="M 56.613281 77.671875 L 56.359375 77.023438 L 55.539062 77.023438 L 55.289062 77.671875 L 55.046875 77.671875 L 55.855469 75.625 L 56.054688 75.625 L 56.859375 77.671875 Z M 56.285156 76.8125 L 56.046875 76.179688 C 56.015625 76.097656 55.984375 76 55.949219 75.882812 C 55.929688 75.972656 55.902344 76.070312 55.863281 76.179688 L 55.621094 76.8125 Z M 56.285156 76.8125 "/>
<path style=" stroke:none;fill-rule:nonzero;fill:rgb(0.392157%,6.27451%,14.117647%);fill-opacity:1;" d="M 57.765625 77.671875 L 57.53125 77.671875 L 57.53125 75.839844 L 56.882812 75.839844 L 56.882812 75.632812 L 58.417969 75.632812 L 58.417969 75.839844 L 57.765625 75.839844 Z M 57.765625 77.671875 "/>
<path style=" stroke:none;fill-rule:nonzero;fill:rgb(0.392157%,6.27451%,14.117647%);fill-opacity:1;" d="M 58.722656 77.671875 L 58.722656 75.632812 L 58.960938 75.632812 L 58.960938 77.671875 Z M 58.722656 77.671875 "/>
<path style=" stroke:none;fill-rule:nonzero;fill:rgb(0.392157%,6.27451%,14.117647%);fill-opacity:1;" d="M 61.296875 76.648438 C 61.296875 76.976562 61.210938 77.234375 61.046875 77.421875 C 60.882812 77.609375 60.652344 77.703125 60.359375 77.703125 C 60.058594 77.703125 59.828125 77.609375 59.664062 77.429688 C 59.5 77.242188 59.417969 76.980469 59.417969 76.644531 C 59.417969 76.3125 59.5 76.058594 59.664062 75.875 C 59.828125 75.691406 60.058594 75.597656 60.363281 75.597656 C 60.65625 75.597656 60.882812 75.691406 61.046875 75.878906 C 61.210938 76.0625 61.296875 76.320312 61.296875 76.648438 Z M 59.667969 76.648438 C 59.667969 76.925781 59.726562 77.136719 59.84375 77.28125 C 59.960938 77.421875 60.132812 77.496094 60.359375 77.496094 C 60.585938 77.496094 60.757812 77.421875 60.871094 77.28125 C 60.988281 77.136719 61.046875 76.925781 61.046875 76.648438 C 61.046875 76.375 60.988281 76.164062 60.871094 76.023438 C 60.757812 75.882812 60.585938 75.8125 60.363281 75.8125 C 60.132812 75.8125 59.960938 75.882812 59.84375 76.027344 C 59.726562 76.167969 59.667969 76.375 59.667969 76.648438 Z M 59.667969 76.648438 "/>
<path style=" stroke:none;fill-rule:nonzero;fill:rgb(0.392157%,6.27451%,14.117647%);fill-opacity:1;" d="M 63.351562 77.671875 L 63.078125 77.671875 L 61.960938 75.957031 L 61.953125 75.957031 C 61.964844 76.160156 61.972656 76.34375 61.972656 76.511719 L 61.972656 77.671875 L 61.75 77.671875 L 61.75 75.632812 L 62.023438 75.632812 L 63.136719 77.335938 L 63.148438 77.335938 C 63.144531 77.3125 63.140625 77.230469 63.136719 77.09375 C 63.128906 76.960938 63.125 76.859375 63.125 76.804688 L 63.125 75.632812 L 63.351562 75.632812 Z M 63.351562 77.671875 "/>
</g>
</svg>
